<svg width="399" height="197" viewBox="0 0 399 197" fill="none" xmlns="http://www.w3.org/2000/svg">
<g filter="url(#filter0_d_1_317)">
<rect x="46.5956" y="45.9146" width="298.432" height="97.1638" rx="2.9744" fill="white"/>
</g>
<path d="M143.316 89.6929H141.05L138.889 82.0942C138.796 81.7631 138.68 81.2867 138.541 80.6651C138.401 80.0377 138.317 79.602 138.288 79.358C138.23 79.7298 138.134 80.212 138.001 80.8045C137.873 81.3971 137.765 81.8386 137.678 82.1291L135.569 89.6929H133.304L131.657 83.3142L129.984 76.9529H132.11L133.931 84.3773C134.216 85.5682 134.419 86.6197 134.541 87.5318C134.605 87.038 134.701 86.4861 134.829 85.8761C134.956 85.2661 135.073 84.7723 135.177 84.3947L137.251 76.9529H139.316L141.443 84.4296C141.646 85.1209 141.861 86.155 142.087 87.5318C142.175 86.701 142.384 85.6437 142.715 84.3599L144.527 76.9529H146.636L143.316 89.6929ZM152.44 89.8672C150.941 89.8672 149.767 89.4314 148.919 88.56C148.077 87.6828 147.656 86.4774 147.656 84.9437C147.656 83.3694 148.048 82.132 148.832 81.2315C149.616 80.3311 150.694 79.8808 152.065 79.8808C153.337 79.8808 154.342 80.2672 155.08 81.0398C155.818 81.8124 156.187 82.8756 156.187 84.2291V85.3358H149.765C149.794 86.2711 150.046 86.9915 150.523 87.4969C150.999 87.9965 151.67 88.2463 152.536 88.2463C153.105 88.2463 153.634 88.1941 154.122 88.0895C154.615 87.9791 155.144 87.799 155.708 87.5492V89.2136C155.208 89.4518 154.702 89.6203 154.191 89.719C153.68 89.8178 153.096 89.8672 152.44 89.8672ZM152.065 81.4319C151.414 81.4319 150.892 81.6382 150.496 82.0506C150.107 82.4631 149.875 83.0644 149.799 83.8544H154.174C154.162 83.0586 153.97 82.4573 153.599 82.0506C153.227 81.6382 152.716 81.4319 152.065 81.4319ZM162.722 89.8672C161.224 89.8672 160.05 89.4314 159.202 88.56C158.359 87.6828 157.938 86.4774 157.938 84.9437C157.938 83.3694 158.33 82.132 159.115 81.2315C159.899 80.3311 160.977 79.8808 162.348 79.8808C163.62 79.8808 164.625 80.2672 165.363 81.0398C166.1 81.8124 166.469 82.8756 166.469 84.2291V85.3358H160.047C160.076 86.2711 160.329 86.9915 160.805 87.4969C161.282 87.9965 161.953 88.2463 162.818 88.2463C163.388 88.2463 163.916 88.1941 164.404 88.0895C164.898 87.9791 165.427 87.799 165.99 87.5492V89.2136C165.49 89.4518 164.985 89.6203 164.474 89.719C163.963 89.8178 163.379 89.8672 162.722 89.8672ZM162.348 81.4319C161.697 81.4319 161.174 81.6382 160.779 82.0506C160.39 82.4631 160.157 83.0644 160.082 83.8544H164.456C164.445 83.0586 164.253 82.4573 163.881 82.0506C163.509 81.6382 162.998 81.4319 162.348 81.4319ZM170.774 84.6039L171.933 83.1573L174.844 80.0551H177.205L173.327 84.1943L177.449 89.6929H175.044L171.951 85.4665L170.826 86.3902V89.6929H168.796V76.1338H170.826V82.7478L170.722 84.6039H170.774ZM181.057 89.6929H179.009V76.1338H181.057V89.6929ZM182.529 80.0551H184.76L186.721 85.5188C187.017 86.2973 187.215 87.0293 187.313 87.7148H187.383C187.435 87.3953 187.531 87.0089 187.671 86.5558C187.81 86.0969 188.548 83.93 189.884 80.0551H192.097L187.976 90.9738C187.226 92.9781 185.977 93.9802 184.229 93.9802C183.776 93.9802 183.334 93.9308 182.904 93.8321V92.2112C183.212 92.281 183.563 92.3158 183.959 92.3158C184.946 92.3158 185.64 91.7436 186.041 90.5991L186.398 89.6929L182.529 80.0551ZM206.85 80.8045C206.85 82.1349 206.415 83.1544 205.543 83.8632C204.672 84.5719 203.432 84.9263 201.822 84.9263H200.498V89.6929H198.415V76.9529H202.084C203.676 76.9529 204.866 77.2782 205.657 77.9289C206.452 78.5795 206.85 79.5381 206.85 80.8045ZM200.498 83.1747H201.605C202.673 83.1747 203.458 82.9888 203.957 82.617C204.457 82.2452 204.707 81.6643 204.707 80.8742C204.707 80.1422 204.483 79.5962 204.036 79.236C203.588 78.8758 202.891 78.6957 201.944 78.6957H200.498V83.1747ZM214.066 79.8808C214.478 79.8808 214.818 79.9099 215.085 79.968L214.885 81.8763C214.594 81.8066 214.292 81.7718 213.978 81.7718C213.159 81.7718 212.494 82.039 211.983 82.5735C211.478 83.1079 211.225 83.8022 211.225 84.6561V89.6929H209.177V80.0551H210.78L211.051 81.7544H211.155C211.475 81.1792 211.89 80.7232 212.401 80.3862C212.918 80.0493 213.473 79.8808 214.066 79.8808ZM225.429 84.8566C225.429 86.4309 225.025 87.6596 224.218 88.5426C223.41 89.4256 222.286 89.8672 220.845 89.8672C219.945 89.8672 219.149 89.6638 218.458 89.2572C217.766 88.8505 217.235 88.2667 216.863 87.5056C216.491 86.7446 216.305 85.8616 216.305 84.8566C216.305 83.2938 216.706 82.0739 217.508 81.1967C218.309 80.3194 219.439 79.8808 220.897 79.8808C222.292 79.8808 223.395 80.3311 224.209 81.2315C225.022 82.1262 225.429 83.3345 225.429 84.8566ZM218.414 84.8566C218.414 87.0816 219.236 88.1941 220.88 88.1941C222.507 88.1941 223.32 87.0816 223.32 84.8566C223.32 82.6548 222.501 81.5539 220.863 81.5539C220.003 81.5539 219.378 81.8386 218.989 82.4079C218.606 82.9772 218.414 83.7934 218.414 84.8566ZM235.929 80.0551V81.1792L234.282 81.4842C234.433 81.6875 234.558 81.9373 234.657 82.2336C234.756 82.5299 234.805 82.8436 234.805 83.1747C234.805 84.1682 234.462 84.9495 233.777 85.5188C233.091 86.0882 232.147 86.3728 230.945 86.3728C230.637 86.3728 230.358 86.3496 230.108 86.3031C229.667 86.5761 229.446 86.8957 229.446 87.2616C229.446 87.4824 229.548 87.648 229.751 87.7583C229.96 87.8687 230.341 87.9239 230.893 87.9239H232.574C233.637 87.9239 234.445 88.1505 234.997 88.6036C235.549 89.0567 235.825 89.7103 235.825 90.5643C235.825 91.6564 235.374 92.4988 234.474 93.0914C233.574 93.6839 232.272 93.9802 230.57 93.9802C229.257 93.9802 228.255 93.7478 227.564 93.2831C226.872 92.8183 226.527 92.156 226.527 91.2963C226.527 90.7037 226.713 90.2041 227.084 89.7974C227.462 89.3966 227.988 89.1177 228.662 88.9609C228.389 88.8447 228.162 88.6588 227.982 88.4032C227.808 88.1418 227.721 87.8687 227.721 87.5841C227.721 87.2239 227.822 86.9189 228.026 86.6691C228.229 86.4193 228.531 86.1724 228.932 85.9284C228.432 85.7134 228.026 85.3649 227.712 84.8827C227.404 84.3947 227.25 83.8254 227.25 83.1747C227.25 82.1291 227.578 81.3186 228.235 80.7435C228.897 80.1684 229.838 79.8808 231.058 79.8808C231.331 79.8808 231.616 79.9012 231.912 79.9418C232.214 79.9767 232.441 80.0144 232.592 80.0551H235.929ZM228.357 91.1917C228.357 91.6332 228.554 91.9731 228.949 92.2112C229.35 92.4494 229.911 92.5685 230.631 92.5685C231.746 92.5685 232.577 92.4088 233.123 92.0892C233.669 91.7697 233.942 91.3456 233.942 90.817C233.942 90.3987 233.791 90.0995 233.489 89.9194C233.193 89.7452 232.638 89.658 231.825 89.658H230.274C229.687 89.658 229.219 89.7945 228.871 90.0676C228.528 90.3464 228.357 90.7211 228.357 91.1917ZM229.237 83.1747C229.237 83.7789 229.391 84.2437 229.699 84.569C230.012 84.8943 230.46 85.057 231.041 85.057C232.226 85.057 232.818 84.4238 232.818 83.1573C232.818 82.5299 232.67 82.0477 232.374 81.7108C232.083 81.368 231.639 81.1967 231.041 81.1967C230.448 81.1967 229.998 81.3651 229.69 81.7021C229.388 82.039 229.237 82.5299 229.237 83.1747ZM242.613 79.8808C243.025 79.8808 243.365 79.9099 243.632 79.968L243.432 81.8763C243.142 81.8066 242.839 81.7718 242.526 81.7718C241.707 81.7718 241.041 82.039 240.53 82.5735C240.025 83.1079 239.772 83.8022 239.772 84.6561V89.6929H237.724V80.0551H239.328L239.598 81.7544H239.702C240.022 81.1792 240.437 80.7232 240.949 80.3862C241.466 80.0493 242.02 79.8808 242.613 79.8808ZM249.636 89.8672C248.138 89.8672 246.964 89.4314 246.116 88.56C245.274 87.6828 244.852 86.4774 244.852 84.9437C244.852 83.3694 245.245 82.132 246.029 81.2315C246.813 80.3311 247.891 79.8808 249.262 79.8808C250.534 79.8808 251.539 80.2672 252.277 81.0398C253.015 81.8124 253.384 82.8756 253.384 84.2291V85.3358H246.961C246.99 86.2711 247.243 86.9915 247.719 87.4969C248.196 87.9965 248.867 88.2463 249.732 88.2463C250.302 88.2463 250.83 88.1941 251.318 88.0895C251.812 87.9791 252.341 87.799 252.904 87.5492V89.2136C252.405 89.4518 251.899 89.6203 251.388 89.719C250.877 89.8178 250.293 89.8672 249.636 89.8672ZM249.262 81.4319C248.611 81.4319 248.088 81.6382 247.693 82.0506C247.304 82.4631 247.072 83.0644 246.996 83.8544H251.371C251.359 83.0586 251.167 82.4573 250.795 82.0506C250.424 81.6382 249.912 81.4319 249.262 81.4319ZM262.185 86.9479C262.185 87.8891 261.842 88.6123 261.156 89.1177C260.471 89.6173 259.489 89.8672 258.211 89.8672C256.927 89.8672 255.896 89.6725 255.118 89.2833V87.5144C256.25 88.0372 257.305 88.2986 258.281 88.2986C259.541 88.2986 260.172 87.9181 260.172 87.1571C260.172 86.9131 260.102 86.7098 259.963 86.5471C259.823 86.3844 259.594 86.216 259.274 86.0417C258.955 85.8674 258.51 85.6699 257.941 85.4491C256.831 85.0192 256.079 84.5893 255.684 84.1594C255.295 83.7295 255.1 83.1718 255.1 82.4863C255.1 81.6614 255.431 81.0224 256.094 80.5692C256.762 80.1103 257.668 79.8808 258.812 79.8808C259.945 79.8808 261.017 80.1103 262.028 80.5692L261.366 82.1116C260.326 81.6817 259.451 81.4668 258.743 81.4668C257.662 81.4668 257.122 81.7747 257.122 82.3905C257.122 82.6926 257.261 82.9482 257.54 83.1573C257.825 83.3665 258.441 83.654 259.388 84.02C260.183 84.3279 260.761 84.6097 261.122 84.8653C261.482 85.1209 261.749 85.4172 261.923 85.7541C262.098 86.0852 262.185 86.4832 262.185 86.9479ZM270.881 86.9479C270.881 87.8891 270.539 88.6123 269.853 89.1177C269.168 89.6173 268.186 89.8672 266.908 89.8672C265.624 89.8672 264.593 89.6725 263.814 89.2833V87.5144C264.947 88.0372 266.001 88.2986 266.977 88.2986C268.238 88.2986 268.868 87.9181 268.868 87.1571C268.868 86.9131 268.799 86.7098 268.659 86.5471C268.52 86.3844 268.29 86.216 267.971 86.0417C267.651 85.8674 267.207 85.6699 266.638 85.4491C265.528 85.0192 264.776 84.5893 264.381 84.1594C263.991 83.7295 263.797 83.1718 263.797 82.4863C263.797 81.6614 264.128 81.0224 264.79 80.5692C265.458 80.1103 266.365 79.8808 267.509 79.8808C268.642 79.8808 269.714 80.1103 270.725 80.5692L270.062 82.1116C269.022 81.6817 268.148 81.4668 267.439 81.4668C266.359 81.4668 265.818 81.7747 265.818 82.3905C265.818 82.6926 265.958 82.9482 266.237 83.1573C266.521 83.3665 267.137 83.654 268.084 84.02C268.88 84.3279 269.458 84.6097 269.818 84.8653C270.178 85.1209 270.446 85.4172 270.62 85.7541C270.794 86.0852 270.881 86.4832 270.881 86.9479ZM285.164 89.6929H277.957V76.9529H285.164V78.7131H280.04V82.1813H284.841V83.9242H280.04V87.9239H285.164V89.6929ZM289.852 84.7694L286.619 80.0551H288.954L291.15 83.4275L293.364 80.0551H295.682L292.44 84.7694L295.847 89.6929H293.529L291.15 86.0852L288.78 89.6929H286.462L289.852 84.7694ZM303.568 89.6929L303.158 88.3509H303.089C302.624 88.9377 302.156 89.3385 301.686 89.5534C301.215 89.7626 300.611 89.8672 299.873 89.8672C298.926 89.8672 298.185 89.6115 297.651 89.1003C297.122 88.5891 296.858 87.8658 296.858 86.9305C296.858 85.9371 297.227 85.1877 297.965 84.6823C298.702 84.1769 299.827 83.9009 301.337 83.8544L303.001 83.8022V83.288C303.001 82.6722 302.856 82.2133 302.566 81.9112C302.281 81.6033 301.837 81.4494 301.232 81.4494C300.739 81.4494 300.265 81.522 299.812 81.6672C299.359 81.8124 298.923 81.9838 298.505 82.1813L297.843 80.7174C298.366 80.4443 298.938 80.2381 299.559 80.0987C300.181 79.9534 300.768 79.8808 301.32 79.8808C302.545 79.8808 303.469 80.1481 304.091 80.6825C304.718 81.217 305.032 82.0564 305.032 83.2009V89.6929H303.568ZM300.518 88.2986C301.262 88.2986 301.857 88.0924 302.304 87.6799C302.757 87.2616 302.984 86.6778 302.984 85.9284V85.0918L301.747 85.1441C300.782 85.179 300.079 85.3416 299.638 85.6321C299.202 85.9168 298.984 86.3554 298.984 86.9479C298.984 87.3778 299.112 87.7119 299.368 87.9501C299.623 88.1824 300.007 88.2986 300.518 88.2986ZM316.012 89.6929H313.955V83.7499C313.955 83.0121 313.816 82.4631 313.537 82.1029C313.258 81.7369 312.822 81.5539 312.23 81.5539C311.44 81.5539 310.859 81.8124 310.487 82.3295C310.121 82.8407 309.938 83.6947 309.938 84.8914V89.6929H307.89V80.0551H309.493L309.781 81.3186H309.886C310.153 80.8597 310.539 80.5053 311.045 80.2555C311.556 80.0057 312.116 79.8808 312.726 79.8808C314.208 79.8808 315.19 80.3862 315.672 81.3971H315.811C316.096 80.9207 316.497 80.5489 317.014 80.2817C317.531 80.0144 318.123 79.8808 318.791 79.8808C319.942 79.8808 320.778 80.1713 321.301 80.7522C321.83 81.3332 322.094 82.2191 322.094 83.41V89.6929H320.046V83.7499C320.046 83.0121 319.904 82.4631 319.619 82.1029C319.34 81.7369 318.905 81.5539 318.312 81.5539C317.516 81.5539 316.932 81.8037 316.561 82.3033C316.195 82.7971 316.012 83.5582 316.012 84.5864V89.6929Z" fill="#575859"/>
<path d="M146.471 117C150.091 117 153.025 114.09 153.025 110.5C153.025 106.91 150.091 104 146.471 104C142.851 104 139.916 106.91 139.916 110.5C139.916 114.09 142.851 117 146.471 117Z" stroke="#45B871" stroke-width="1.38805" stroke-linecap="round" stroke-linejoin="round"/>
<path d="M145.967 108V111.75L147.983 113" stroke="#45B871" stroke-width="1.38805" stroke-linecap="round" stroke-linejoin="round"/>
<path d="M164.782 115.42H163.794V107.804H161.105V106.927H167.472V107.804H164.782V115.42ZM169.575 115.42H168.61V109.053H169.575V115.42ZM168.529 107.327C168.529 107.107 168.583 106.946 168.692 106.845C168.8 106.741 168.936 106.688 169.098 106.688C169.253 106.688 169.387 106.741 169.499 106.845C169.611 106.95 169.668 107.111 169.668 107.327C169.668 107.544 169.611 107.707 169.499 107.815C169.387 107.92 169.253 107.972 169.098 107.972C168.936 107.972 168.8 107.92 168.692 107.815C168.583 107.707 168.529 107.544 168.529 107.327ZM179.735 115.42V111.278C179.735 110.77 179.627 110.391 179.41 110.139C179.193 109.884 178.856 109.756 178.399 109.756C177.799 109.756 177.355 109.928 177.069 110.273C176.782 110.618 176.639 111.148 176.639 111.865V115.42H175.675V111.278C175.675 110.77 175.566 110.391 175.349 110.139C175.132 109.884 174.793 109.756 174.333 109.756C173.728 109.756 173.285 109.938 173.002 110.302C172.723 110.662 172.584 111.255 172.584 112.08V115.42H171.62V109.053H172.404L172.561 109.924H172.607C172.789 109.614 173.045 109.372 173.374 109.198C173.707 109.024 174.079 108.937 174.489 108.937C175.485 108.937 176.135 109.297 176.441 110.017H176.488C176.678 109.684 176.953 109.421 177.313 109.227C177.673 109.033 178.083 108.937 178.544 108.937C179.265 108.937 179.803 109.123 180.159 109.494C180.52 109.862 180.7 110.453 180.7 111.266V115.42H179.735ZM185.382 115.536C184.441 115.536 183.697 115.25 183.151 114.676C182.609 114.103 182.338 113.307 182.338 112.289C182.338 111.262 182.59 110.447 183.093 109.843C183.6 109.239 184.28 108.937 185.132 108.937C185.93 108.937 186.561 109.2 187.026 109.727C187.491 110.25 187.723 110.941 187.723 111.801V112.411H183.337C183.356 113.158 183.544 113.726 183.901 114.113C184.261 114.5 184.766 114.694 185.417 114.694C186.102 114.694 186.78 114.55 187.45 114.264V115.124C187.109 115.271 186.786 115.375 186.48 115.437C186.178 115.503 185.812 115.536 185.382 115.536ZM185.121 109.744C184.609 109.744 184.201 109.911 183.895 110.244C183.593 110.577 183.415 111.038 183.36 111.626H186.689C186.689 111.018 186.554 110.554 186.282 110.232C186.011 109.907 185.624 109.744 185.121 109.744ZM189.234 114.804C189.234 114.545 189.292 114.349 189.408 114.217C189.528 114.082 189.698 114.014 189.919 114.014C190.144 114.014 190.318 114.082 190.442 114.217C190.57 114.349 190.634 114.545 190.634 114.804C190.634 115.056 190.57 115.25 190.442 115.385C190.314 115.521 190.14 115.588 189.919 115.588C189.722 115.588 189.557 115.528 189.425 115.408C189.298 115.284 189.234 115.083 189.234 114.804ZM189.234 109.674C189.234 109.152 189.462 108.89 189.919 108.89C190.395 108.89 190.634 109.152 190.634 109.674C190.634 109.926 190.57 110.12 190.442 110.255C190.314 110.391 190.14 110.459 189.919 110.459C189.722 110.459 189.557 110.399 189.425 110.279C189.298 110.155 189.234 109.953 189.234 109.674ZM200.777 110.552C200.777 113.875 199.491 115.536 196.919 115.536C196.47 115.536 196.114 115.497 195.85 115.42V114.589C196.16 114.69 196.513 114.74 196.908 114.74C197.837 114.74 198.538 114.454 199.011 113.88C199.487 113.303 199.747 112.42 199.789 111.231H199.72C199.507 111.553 199.224 111.799 198.871 111.969C198.519 112.136 198.122 112.219 197.68 112.219C196.929 112.219 196.333 111.994 195.891 111.545C195.45 111.096 195.229 110.468 195.229 109.663C195.229 108.78 195.475 108.083 195.967 107.571C196.462 107.06 197.113 106.805 197.919 106.805C198.496 106.805 198.999 106.954 199.429 107.252C199.863 107.546 200.196 107.978 200.428 108.547C200.661 109.113 200.777 109.781 200.777 110.552ZM197.919 107.63C197.365 107.63 196.937 107.808 196.635 108.164C196.333 108.52 196.182 109.016 196.182 109.651C196.182 110.209 196.321 110.648 196.6 110.97C196.879 111.288 197.303 111.446 197.872 111.446C198.225 111.446 198.548 111.375 198.842 111.231C199.141 111.088 199.375 110.892 199.545 110.645C199.716 110.397 199.801 110.137 199.801 109.866C199.801 109.459 199.721 109.084 199.563 108.739C199.404 108.394 199.181 108.123 198.895 107.926C198.612 107.728 198.287 107.63 197.919 107.63ZM202.305 114.804C202.305 114.545 202.363 114.349 202.479 114.217C202.599 114.082 202.769 114.014 202.99 114.014C203.215 114.014 203.389 114.082 203.513 114.217C203.641 114.349 203.705 114.545 203.705 114.804C203.705 115.056 203.641 115.25 203.513 115.385C203.385 115.521 203.211 115.588 202.99 115.588C202.793 115.588 202.628 115.528 202.496 115.408C202.369 115.284 202.305 115.083 202.305 114.804ZM210.804 111.162C210.804 112.629 210.571 113.726 210.107 114.45C209.646 115.174 208.939 115.536 207.986 115.536C207.072 115.536 206.377 115.166 205.901 114.427C205.424 113.683 205.186 112.595 205.186 111.162C205.186 109.682 205.417 108.584 205.877 107.868C206.338 107.151 207.041 106.793 207.986 106.793C208.908 106.793 209.607 107.167 210.083 107.914C210.564 108.662 210.804 109.744 210.804 111.162ZM206.162 111.162C206.162 112.397 206.307 113.298 206.598 113.863C206.888 114.425 207.351 114.705 207.986 114.705C208.629 114.705 209.094 114.421 209.381 113.851C209.671 113.278 209.816 112.382 209.816 111.162C209.816 109.942 209.671 109.049 209.381 108.484C209.094 107.914 208.629 107.63 207.986 107.63C207.351 107.63 206.888 107.91 206.598 108.472C206.307 109.03 206.162 109.926 206.162 111.162ZM217.612 111.162C217.612 112.629 217.38 113.726 216.915 114.45C216.454 115.174 215.748 115.536 214.795 115.536C213.881 115.536 213.186 115.166 212.709 114.427C212.233 113.683 211.995 112.595 211.995 111.162C211.995 109.682 212.225 108.584 212.686 107.868C213.147 107.151 213.85 106.793 214.795 106.793C215.717 106.793 216.416 107.167 216.892 107.914C217.372 108.662 217.612 109.744 217.612 111.162ZM212.971 111.162C212.971 112.397 213.116 113.298 213.406 113.863C213.697 114.425 214.16 114.705 214.795 114.705C215.438 114.705 215.903 114.421 216.189 113.851C216.48 113.278 216.625 112.382 216.625 111.162C216.625 109.942 216.48 109.049 216.189 108.484C215.903 107.914 215.438 107.63 214.795 107.63C214.16 107.63 213.697 107.91 213.406 108.472C213.116 109.03 212.971 109.926 212.971 111.162ZM225.287 115.536C224.872 115.536 224.493 115.461 224.148 115.31C223.807 115.155 223.521 114.918 223.288 114.601H223.218C223.265 114.973 223.288 115.325 223.288 115.658V118.278H222.324V109.053H223.108L223.242 109.924H223.288C223.536 109.576 223.825 109.324 224.154 109.169C224.483 109.014 224.861 108.937 225.287 108.937C226.131 108.937 226.782 109.225 227.239 109.802C227.699 110.379 227.93 111.189 227.93 112.231C227.93 113.276 227.696 114.09 227.227 114.671C226.762 115.248 226.115 115.536 225.287 115.536ZM225.147 109.756C224.497 109.756 224.026 109.936 223.736 110.296C223.445 110.656 223.296 111.229 223.288 112.016V112.231C223.288 113.125 223.437 113.766 223.736 114.153C224.034 114.537 224.512 114.729 225.17 114.729C225.72 114.729 226.15 114.506 226.46 114.061C226.774 113.615 226.931 113.001 226.931 112.219C226.931 111.425 226.774 110.817 226.46 110.395C226.15 109.969 225.713 109.756 225.147 109.756ZM237.736 115.42V111.278C237.736 110.77 237.628 110.391 237.411 110.139C237.194 109.884 236.857 109.756 236.4 109.756C235.8 109.756 235.356 109.928 235.07 110.273C234.783 110.618 234.64 111.148 234.64 111.865V115.42H233.675V111.278C233.675 110.77 233.567 110.391 233.35 110.139C233.133 109.884 232.794 109.756 232.333 109.756C231.729 109.756 231.286 109.938 231.003 110.302C230.724 110.662 230.585 111.255 230.585 112.08V115.42H229.62V109.053H230.405L230.562 109.924H230.608C230.79 109.614 231.046 109.372 231.375 109.198C231.708 109.024 232.08 108.937 232.49 108.937C233.486 108.937 234.136 109.297 234.442 110.017H234.489C234.678 109.684 234.953 109.421 235.314 109.227C235.674 109.033 236.084 108.937 236.545 108.937C237.266 108.937 237.804 109.123 238.16 109.494C238.52 109.862 238.7 110.453 238.7 111.266V115.42H237.736ZM241.704 114.037L241.791 114.171C241.69 114.558 241.545 115.007 241.355 115.519C241.166 116.034 240.968 116.512 240.763 116.954H240.037C240.141 116.551 240.255 116.053 240.379 115.461C240.507 114.868 240.596 114.394 240.647 114.037H241.704ZM251.638 113.16C251.638 113.908 251.367 114.49 250.825 114.909C250.282 115.327 249.547 115.536 248.617 115.536C247.61 115.536 246.836 115.406 246.293 115.147V114.194C246.642 114.341 247.021 114.458 247.432 114.543C247.843 114.628 248.249 114.671 248.652 114.671C249.31 114.671 249.806 114.547 250.139 114.299C250.472 114.047 250.639 113.698 250.639 113.253C250.639 112.959 250.579 112.719 250.459 112.533C250.342 112.343 250.145 112.169 249.866 112.01C249.591 111.851 249.171 111.671 248.605 111.47C247.815 111.187 247.25 110.852 246.909 110.465C246.572 110.077 246.404 109.572 246.404 108.948C246.404 108.294 246.65 107.773 247.142 107.386C247.633 106.998 248.284 106.805 249.093 106.805C249.938 106.805 250.714 106.96 251.423 107.269L251.115 108.129C250.414 107.835 249.732 107.688 249.07 107.688C248.547 107.688 248.139 107.8 247.844 108.025C247.55 108.249 247.403 108.561 247.403 108.96C247.403 109.254 247.457 109.496 247.566 109.686C247.674 109.872 247.856 110.044 248.112 110.203C248.371 110.358 248.766 110.53 249.297 110.72C250.188 111.038 250.799 111.379 251.133 111.743C251.47 112.107 251.638 112.579 251.638 113.16ZM254.136 109.053V113.183C254.136 113.702 254.254 114.09 254.49 114.345C254.727 114.601 255.096 114.729 255.6 114.729C256.266 114.729 256.752 114.547 257.058 114.183C257.368 113.818 257.523 113.224 257.523 112.399V109.053H258.487V115.42H257.691L257.552 114.566H257.5C257.302 114.88 257.027 115.12 256.675 115.286C256.326 115.453 255.927 115.536 255.478 115.536C254.703 115.536 254.122 115.352 253.735 114.984C253.352 114.616 253.16 114.028 253.16 113.218V109.053H254.136ZM264.895 115.42V111.301C264.895 110.782 264.777 110.395 264.541 110.139C264.304 109.884 263.934 109.756 263.431 109.756C262.765 109.756 262.277 109.936 261.967 110.296C261.657 110.656 261.502 111.251 261.502 112.08V115.42H260.538V109.053H261.322L261.479 109.924H261.526C261.723 109.611 262 109.368 262.356 109.198C262.713 109.024 263.11 108.937 263.547 108.937C264.314 108.937 264.891 109.123 265.278 109.494C265.666 109.862 265.859 110.453 265.859 111.266V115.42H264.895ZM272.18 114.566H272.128C271.682 115.213 271.016 115.536 270.129 115.536C269.297 115.536 268.648 115.251 268.183 114.682C267.722 114.113 267.492 113.303 267.492 112.254C267.492 111.204 267.724 110.389 268.189 109.808C268.654 109.227 269.3 108.937 270.129 108.937C270.993 108.937 271.655 109.25 272.116 109.878H272.192L272.151 109.419L272.128 108.972V106.381H273.092V115.42H272.308L272.18 114.566ZM270.251 114.729C270.91 114.729 271.386 114.55 271.68 114.194C271.979 113.834 272.128 113.255 272.128 112.457V112.254C272.128 111.351 271.977 110.709 271.675 110.325C271.376 109.938 270.898 109.744 270.24 109.744C269.674 109.744 269.24 109.965 268.938 110.406C268.64 110.844 268.491 111.464 268.491 112.265C268.491 113.079 268.64 113.693 268.938 114.107C269.237 114.521 269.674 114.729 270.251 114.729ZM279.058 115.42L278.867 114.514H278.82C278.502 114.913 278.185 115.184 277.867 115.327C277.554 115.466 277.161 115.536 276.688 115.536C276.057 115.536 275.561 115.373 275.201 115.048C274.845 114.723 274.666 114.26 274.666 113.66C274.666 112.374 275.695 111.7 277.751 111.638L278.832 111.603V111.208C278.832 110.709 278.723 110.341 278.506 110.104C278.293 109.864 277.951 109.744 277.478 109.744C276.948 109.744 276.347 109.907 275.677 110.232L275.381 109.494C275.695 109.324 276.037 109.19 276.409 109.094C276.785 108.997 277.161 108.948 277.536 108.948C278.295 108.948 278.857 109.117 279.221 109.454C279.589 109.791 279.773 110.331 279.773 111.075V115.42H279.058ZM276.88 114.74C277.48 114.74 277.951 114.576 278.291 114.246C278.636 113.917 278.808 113.456 278.808 112.864V112.289L277.844 112.329C277.077 112.356 276.523 112.477 276.183 112.69C275.846 112.899 275.677 113.226 275.677 113.671C275.677 114.02 275.782 114.285 275.991 114.467C276.204 114.649 276.5 114.74 276.88 114.74ZM280.755 109.053H281.789L283.183 112.684C283.489 113.513 283.679 114.111 283.752 114.479H283.799C283.849 114.281 283.954 113.944 284.112 113.468C284.275 112.988 284.802 111.516 285.693 109.053H286.727L283.99 116.303C283.719 117.019 283.402 117.527 283.038 117.825C282.677 118.127 282.234 118.278 281.707 118.278C281.413 118.278 281.123 118.245 280.836 118.179V117.407C281.049 117.453 281.287 117.476 281.55 117.476C282.213 117.476 282.685 117.105 282.968 116.361L283.322 115.455L280.755 109.053Z" fill="#696969"/>
<circle cx="92.2739" cy="95.2739" r="26.2739" fill="#4C68FF"/>
<path d="M99.4485 86.2688H84.1811C82.9765 86.2688 82 87.2846 82 88.5376V104.419C82 105.672 82.9765 106.688 84.1811 106.688H99.4485C100.653 106.688 101.63 105.672 101.63 104.419V88.5376C101.63 87.2846 100.653 86.2688 99.4485 86.2688Z" stroke="white" stroke-width="1.98294" stroke-linecap="round" stroke-linejoin="round"/>
<path d="M96.1766 84V88.5376" stroke="white" stroke-width="1.98294" stroke-linecap="round" stroke-linejoin="round"/>
<path d="M87.4528 84V88.5376" stroke="white" stroke-width="1.98294" stroke-linecap="round" stroke-linejoin="round"/>
<path d="M82 93.0754H101.63" stroke="white" stroke-width="1.98294" stroke-linecap="round" stroke-linejoin="round"/>
<defs>
<filter id="filter0_d_1_317" x="0.988072" y="0.307042" width="397.578" height="196.311" filterUnits="userSpaceOnUse" color-interpolation-filters="sRGB">
<feFlood flood-opacity="0" result="BackgroundImageFix"/>
<feColorMatrix in="SourceAlpha" type="matrix" values="0 0 0 0 0 0 0 0 0 0 0 0 0 0 0 0 0 0 127 0" result="hardAlpha"/>
<feOffset dx="3.96587" dy="3.96587"/>
<feGaussianBlur stdDeviation="24.7867"/>
<feColorMatrix type="matrix" values="0 0 0 0 0.298039 0 0 0 0 0.407843 0 0 0 0 1 0 0 0 0.1 0"/>
<feBlend mode="normal" in2="BackgroundImageFix" result="effect1_dropShadow_1_317"/>
<feBlend mode="normal" in="SourceGraphic" in2="effect1_dropShadow_1_317" result="shape"/>
</filter>
</defs>
</svg>
