<svg width="356" height="247" viewBox="0 0 356 247" fill="none" xmlns="http://www.w3.org/2000/svg">
<g filter="url(#filter0_d_1_273)">
<rect x="83.5035" y="75.4387" width="196.311" height="88.2406" rx="2.45258" fill="white"/>
</g>
<path d="M122.071 122.26C122.11 122.174 122.232 122.174 122.27 122.26L125.171 128.722C125.187 128.758 125.22 128.782 125.259 128.786L132.301 129.548C132.395 129.558 132.433 129.674 132.363 129.737L127.113 134.493C127.084 134.519 127.071 134.558 127.079 134.596L128.531 141.529C128.551 141.622 128.452 141.693 128.37 141.646L122.225 138.123C122.191 138.104 122.15 138.104 122.116 138.123L115.971 141.646C115.889 141.693 115.791 141.622 115.81 141.529L117.262 134.596C117.27 134.558 117.257 134.519 117.229 134.493L111.978 129.737C111.909 129.674 111.946 129.558 112.04 129.548L119.083 128.786C119.121 128.782 119.155 128.758 119.171 128.722L122.071 122.26Z" fill="#E1E60A"/>
<path d="M151.815 122.26C151.854 122.174 151.976 122.174 152.014 122.26L154.915 128.722C154.931 128.758 154.964 128.782 155.003 128.786L162.045 129.548C162.139 129.558 162.177 129.674 162.107 129.737L156.857 134.493C156.828 134.519 156.815 134.558 156.823 134.596L158.275 141.529C158.295 141.622 158.196 141.693 158.114 141.646L151.969 138.123C151.935 138.104 151.894 138.104 151.86 138.123L145.715 141.646C145.633 141.693 145.535 141.622 145.554 141.529L147.006 134.596C147.014 134.558 147.001 134.519 146.973 134.493L141.722 129.737C141.653 129.674 141.69 129.558 141.784 129.548L148.827 128.786C148.865 128.782 148.899 128.758 148.915 128.722L151.815 122.26Z" fill="#E1E60A"/>
<path d="M181.559 122.26C181.598 122.174 181.72 122.174 181.758 122.26L184.659 128.722C184.675 128.758 184.708 128.782 184.747 128.786L191.789 129.548C191.883 129.558 191.921 129.674 191.851 129.737L186.601 134.493C186.572 134.519 186.559 134.558 186.567 134.596L188.019 141.529C188.039 141.622 187.94 141.693 187.858 141.646L181.713 138.123C181.679 138.104 181.638 138.104 181.604 138.123L175.459 141.646C175.377 141.693 175.279 141.622 175.298 141.529L176.75 134.596C176.758 134.558 176.745 134.519 176.717 134.493L171.466 129.737C171.397 129.674 171.434 129.558 171.528 129.548L178.571 128.786C178.609 128.782 178.643 128.758 178.659 128.722L181.559 122.26Z" fill="#E1E60A"/>
<path d="M211.303 122.26C211.342 122.174 211.464 122.174 211.502 122.26L214.403 128.722C214.419 128.758 214.452 128.782 214.491 128.786L221.533 129.548C221.627 129.558 221.665 129.674 221.595 129.737L216.345 134.493C216.316 134.519 216.303 134.558 216.311 134.596L217.763 141.529C217.783 141.622 217.684 141.693 217.602 141.646L211.457 138.123C211.423 138.104 211.382 138.104 211.348 138.123L205.203 141.646C205.121 141.693 205.023 141.622 205.042 141.529L206.494 134.596C206.502 134.558 206.489 134.519 206.461 134.493L201.21 129.737C201.141 129.674 201.178 129.558 201.272 129.548L208.315 128.786C208.353 128.782 208.387 128.758 208.403 128.722L211.303 122.26Z" fill="#E1E60A"/>
<path d="M241.047 122.26C241.086 122.174 241.208 122.174 241.246 122.26L244.147 128.722C244.163 128.758 244.196 128.782 244.235 128.786L251.277 129.548C251.371 129.558 251.409 129.674 251.339 129.737L246.089 134.493C246.06 134.519 246.047 134.558 246.055 134.596L247.507 141.529C247.527 141.622 247.428 141.693 247.346 141.646L241.201 138.123C241.167 138.104 241.126 138.104 241.092 138.123L234.947 141.646C234.865 141.693 234.767 141.622 234.786 141.529L236.238 134.596C236.246 134.558 236.233 134.519 236.205 134.493L230.954 129.737C230.885 129.674 230.922 129.558 231.016 129.548L238.059 128.786C238.097 128.782 238.131 128.758 238.147 128.722L241.047 122.26Z" fill="#E1E60A"/>
<path d="M127.081 102.358H131.769V108.754C131.002 109.004 130.264 109.181 129.555 109.285C128.852 109.39 128.091 109.442 127.272 109.442C125.344 109.442 123.856 108.873 122.811 107.734C121.765 106.59 121.242 104.978 121.242 102.898C121.242 100.847 121.832 99.244 123.011 98.0879C124.19 96.926 125.814 96.3451 127.882 96.3451C129.213 96.3451 130.473 96.6007 131.664 97.1119L130.932 98.846C129.898 98.3697 128.864 98.1315 127.83 98.1315C126.471 98.1315 125.396 98.5585 124.606 99.4125C123.816 100.266 123.421 101.434 123.421 102.916C123.421 104.472 123.775 105.658 124.484 106.471C125.198 107.278 126.224 107.682 127.56 107.682C128.234 107.682 128.954 107.598 129.721 107.429V104.144H127.081V102.358ZM139.507 99.456C139.919 99.456 140.259 99.4851 140.526 99.5432L140.326 101.452C140.035 101.382 139.733 101.347 139.42 101.347C138.601 101.347 137.935 101.614 137.424 102.149C136.919 102.683 136.666 103.377 136.666 104.231V109.268H134.618V99.6303H136.222L136.492 101.33H136.596C136.916 100.754 137.331 100.298 137.842 99.9614C138.359 99.6245 138.914 99.456 139.507 99.456ZM146.53 109.442C145.032 109.442 143.858 109.007 143.01 108.135C142.168 107.258 141.746 106.053 141.746 104.519C141.746 102.945 142.138 101.707 142.923 100.807C143.707 99.9062 144.785 99.456 146.156 99.456C147.428 99.456 148.433 99.8423 149.171 100.615C149.909 101.388 150.277 102.451 150.277 103.804V104.911H143.855C143.884 105.846 144.137 106.567 144.613 107.072C145.09 107.572 145.761 107.822 146.626 107.822C147.196 107.822 147.724 107.769 148.212 107.665C148.706 107.554 149.235 107.374 149.798 107.124V108.789C149.299 109.027 148.793 109.195 148.282 109.294C147.771 109.393 147.187 109.442 146.53 109.442ZM146.156 101.007C145.505 101.007 144.982 101.213 144.587 101.626C144.198 102.038 143.966 102.64 143.89 103.43H148.264C148.253 102.634 148.061 102.032 147.689 101.626C147.318 101.213 146.806 101.007 146.156 101.007ZM158.634 109.268L158.225 107.926H158.155C157.69 108.513 157.223 108.914 156.752 109.129C156.281 109.338 155.677 109.442 154.939 109.442C153.993 109.442 153.252 109.187 152.717 108.676C152.189 108.164 151.924 107.441 151.924 106.506C151.924 105.512 152.293 104.763 153.031 104.257C153.769 103.752 154.893 103.476 156.403 103.43L158.068 103.377V102.863C158.068 102.247 157.923 101.788 157.632 101.486C157.347 101.179 156.903 101.025 156.299 101.025C155.805 101.025 155.332 101.097 154.878 101.242C154.425 101.388 153.99 101.559 153.571 101.757L152.909 100.293C153.432 100.02 154.004 99.8133 154.626 99.6739C155.247 99.5286 155.834 99.456 156.386 99.456C157.612 99.456 158.535 99.7233 159.157 100.258C159.784 100.792 160.098 101.632 160.098 102.776V109.268H158.634ZM155.584 107.874C156.328 107.874 156.923 107.668 157.371 107.255C157.824 106.837 158.05 106.253 158.05 105.504V104.667L156.813 104.719C155.849 104.754 155.146 104.917 154.704 105.207C154.268 105.492 154.051 105.931 154.051 106.523C154.051 106.953 154.178 107.287 154.434 107.525C154.69 107.758 155.073 107.874 155.584 107.874ZM166.547 107.787C167.046 107.787 167.546 107.708 168.045 107.551V109.094C167.819 109.193 167.525 109.274 167.165 109.338C166.811 109.407 166.442 109.442 166.059 109.442C164.118 109.442 163.148 108.42 163.148 106.375V101.181H161.832V100.275L163.244 99.5257L163.941 97.4866H165.205V99.6303H167.95V101.181H165.205V106.34C165.205 106.834 165.327 107.2 165.571 107.438C165.82 107.67 166.146 107.787 166.547 107.787ZM179.234 109.268H177.152V98.3145H173.405V96.5281H182.981V98.3145H179.234V109.268ZM188.933 109.442C187.434 109.442 186.261 109.007 185.413 108.135C184.57 107.258 184.149 106.053 184.149 104.519C184.149 102.945 184.541 101.707 185.325 100.807C186.11 99.9062 187.187 99.456 188.558 99.456C189.831 99.456 190.836 99.8423 191.573 100.615C192.311 101.388 192.68 102.451 192.68 103.804V104.911H186.258C186.287 105.846 186.54 106.567 187.016 107.072C187.492 107.572 188.163 107.822 189.029 107.822C189.598 107.822 190.127 107.769 190.615 107.665C191.109 107.554 191.637 107.374 192.201 107.124V108.789C191.701 109.027 191.196 109.195 190.685 109.294C190.173 109.393 189.59 109.442 188.933 109.442ZM188.558 101.007C187.908 101.007 187.385 101.213 186.99 101.626C186.601 102.038 186.368 102.64 186.293 103.43H190.667C190.656 102.634 190.464 102.032 190.092 101.626C189.72 101.213 189.209 101.007 188.558 101.007ZM201.037 109.268L200.627 107.926H200.558C200.093 108.513 199.625 108.914 199.155 109.129C198.684 109.338 198.08 109.442 197.342 109.442C196.395 109.442 195.655 109.187 195.12 108.676C194.591 108.164 194.327 107.441 194.327 106.506C194.327 105.512 194.696 104.763 195.434 104.257C196.172 103.752 197.296 103.476 198.806 103.43L200.47 103.377V102.863C200.47 102.247 200.325 101.788 200.035 101.486C199.75 101.179 199.306 101.025 198.702 101.025C198.208 101.025 197.734 101.097 197.281 101.242C196.828 101.388 196.392 101.559 195.974 101.757L195.312 100.293C195.835 100.02 196.407 99.8133 197.028 99.6739C197.65 99.5286 198.237 99.456 198.789 99.456C200.014 99.456 200.938 99.7233 201.56 100.258C202.187 100.792 202.501 101.632 202.501 102.776V109.268H201.037ZM197.987 107.874C198.731 107.874 199.326 107.668 199.773 107.255C200.226 106.837 200.453 106.253 200.453 105.504V104.667L199.216 104.719C198.251 104.754 197.548 104.917 197.107 105.207C196.671 105.492 196.453 105.931 196.453 106.523C196.453 106.953 196.581 107.287 196.837 107.525C197.092 107.758 197.476 107.874 197.987 107.874ZM209.246 109.442C207.787 109.442 206.678 109.018 205.917 108.17C205.162 107.316 204.784 106.093 204.784 104.501C204.784 102.881 205.179 101.635 205.969 100.763C206.765 99.8917 207.912 99.456 209.411 99.456C210.428 99.456 211.343 99.6448 212.156 100.022L211.537 101.669C210.672 101.332 209.957 101.164 209.394 101.164C207.726 101.164 206.893 102.271 206.893 104.484C206.893 105.565 207.099 106.378 207.511 106.924C207.93 107.464 208.54 107.734 209.341 107.734C210.253 107.734 211.116 107.508 211.929 107.055V108.841C211.563 109.056 211.171 109.21 210.753 109.303C210.341 109.396 209.838 109.442 209.246 109.442ZM222.674 109.268H220.617V103.342C220.617 102.599 220.466 102.044 220.164 101.678C219.868 101.312 219.395 101.129 218.744 101.129C217.884 101.129 217.251 101.388 216.844 101.905C216.443 102.416 216.243 103.276 216.243 104.484V109.268H214.195V95.709H216.243V99.151C216.243 99.7029 216.208 100.293 216.138 100.92H216.269C216.548 100.455 216.934 100.095 217.428 99.8394C217.928 99.5838 218.509 99.456 219.171 99.456C221.506 99.456 222.674 100.632 222.674 102.985V109.268ZM229.732 109.442C228.234 109.442 227.06 109.007 226.212 108.135C225.369 107.258 224.948 106.053 224.948 104.519C224.948 102.945 225.34 101.707 226.125 100.807C226.909 99.9062 227.987 99.456 229.358 99.456C230.63 99.456 231.635 99.8423 232.373 100.615C233.11 101.388 233.479 102.451 233.479 103.804V104.911H227.057C227.086 105.846 227.339 106.567 227.815 107.072C228.292 107.572 228.963 107.822 229.828 107.822C230.397 107.822 230.926 107.769 231.414 107.665C231.908 107.554 232.437 107.374 233 107.124V108.789C232.5 109.027 231.995 109.195 231.484 109.294C230.973 109.393 230.389 109.442 229.732 109.442ZM229.358 101.007C228.707 101.007 228.184 101.213 227.789 101.626C227.4 102.038 227.167 102.64 227.092 103.43H231.466C231.455 102.634 231.263 102.032 230.891 101.626C230.519 101.213 230.008 101.007 229.358 101.007ZM240.695 99.456C241.107 99.456 241.447 99.4851 241.714 99.5432L241.514 101.452C241.223 101.382 240.921 101.347 240.607 101.347C239.788 101.347 239.123 101.614 238.612 102.149C238.107 102.683 237.854 103.377 237.854 104.231V109.268H235.806V99.6303H237.409L237.68 101.33H237.784C238.104 100.754 238.519 100.298 239.03 99.9614C239.547 99.6245 240.102 99.456 240.695 99.456Z" fill="#575859"/>
<defs>
<filter id="filter0_d_1_273" x="0.220264" y="0.0871854" width="354.945" height="246.876" filterUnits="userSpaceOnUse" color-interpolation-filters="sRGB">
<feFlood flood-opacity="0" result="BackgroundImageFix"/>
<feColorMatrix in="SourceAlpha" type="matrix" values="0 0 0 0 0 0 0 0 0 0 0 0 0 0 0 0 0 0 127 0" result="hardAlpha"/>
<feOffset dx="-3.96587" dy="3.96587"/>
<feGaussianBlur stdDeviation="39.6587"/>
<feColorMatrix type="matrix" values="0 0 0 0 0.298039 0 0 0 0 0.407843 0 0 0 0 1 0 0 0 0.12 0"/>
<feBlend mode="normal" in2="BackgroundImageFix" result="effect1_dropShadow_1_273"/>
<feBlend mode="normal" in="SourceGraphic" in2="effect1_dropShadow_1_273" result="shape"/>
</filter>
</defs>
</svg>
